<?xml version="1.0" encoding="utf-8"?>
<!-- Generator: Adobe Illustrator 15.0.3, SVG Export Plug-In . SVG Version: 6.00 Build 0)  -->
<!DOCTYPE svg PUBLIC "-//W3C//DTD SVG 1.1//EN" "http://www.w3.org/Graphics/SVG/1.1/DTD/svg11.dtd">
<svg version="1.1" id="Ebene_1" xmlns="http://www.w3.org/2000/svg" xmlns:xlink="http://www.w3.org/1999/xlink" x="0px" y="0px"
	 width="624px" height="357px" viewBox="0 0 624 357" enable-background="new 0 0 624 357" xml:space="preserve">
<line fill="none" stroke="#000000" stroke-width="1.875" stroke-miterlimit="10" x1="268.84" y1="334.748" x2="282.03" y2="251.375"/>
<line fill="none" stroke="#000000" stroke-width="1.875" stroke-miterlimit="10" x1="287.02" y1="255.102" x2="277.17" y2="337.072"/>
<line fill="none" stroke="#000000" stroke-width="1.875" stroke-miterlimit="10" x1="293.297" y1="258.271" x2="284.87" y2="338.562"/>
<line fill="none" stroke="#000000" stroke-width="1.875" stroke-miterlimit="10" x1="298.984" y1="260.27" x2="293.552" y2="339.082"/>
<polyline fill="none" stroke="#000000" stroke-width="1.875" stroke-miterlimit="10" points="305.205,261.5 303.578,309.494 
	302.576,340.125 "/>
<line fill="none" stroke="#000000" stroke-width="1.875" stroke-miterlimit="10" x1="311.971" y1="262.27" x2="311.438" y2="340.508"/>
<line fill="none" stroke="#000000" stroke-width="1.875" stroke-miterlimit="10" x1="317.508" y1="260.959" x2="320.979" y2="340.195"/>
<line fill="none" stroke="#000000" stroke-width="1.875" stroke-miterlimit="10" x1="323.066" y1="260.09" x2="330.7" y2="338.736"/>
<line fill="none" stroke="#000000" stroke-width="1.875" stroke-miterlimit="10" x1="328.88" y1="258.811" x2="339.99" y2="338.064"/>
<line fill="none" stroke="#000000" stroke-width="1.875" stroke-miterlimit="10" x1="334.106" y1="256.427" x2="348.155" y2="336.445"/>
<line fill="none" stroke="#000000" stroke-width="1.875" stroke-miterlimit="10" x1="340.486" y1="252.123" x2="355.765" y2="334.436"/>
<path fill="none" stroke="#000000" stroke-width="1.875" stroke-miterlimit="10" d="M260.739,330.402"/>
<path fill="none" stroke="#000000" stroke-width="3" stroke-linecap="square" stroke-miterlimit="10" d="M276.696,247.59
	l-16.131,83.854c2.604,4.861,7.854,2.529,8.275,3.309c2.663,4.854,7.704,1.545,8.33,2.324c3.012,3.742,7.462,0.979,8.182,1.588
	c4.206,3.547,8.065,0.262,9.064,1.137c4.343,3.805,7.584-0.105,8.682,0.576c4.341,2.703,7.404-0.475,8.338,0.137
	c5.03,3.264,8.24-0.941,9.542-0.312c4.863,2.357,9.159-1.375,10.072-0.868c5.208,2.882,8.037-1.626,8.938-1.263
	c5.122,2.062,7.246-1.928,8.164-1.617c5.291,1.771,6.508-2.053,7.61-2.014c2.631,0.098,5.146-0.562,7.056-2.471l-15.881-84.836"/>
<path fill="none" stroke="#000000" stroke-width="3" stroke-miterlimit="10" d="M271.374,274.49
	c2.878,3.502,5.754,2.133,6.389,2.688c3.462,3.023,5.683,1.065,6.342,1.545c3.708,2.695,6.034,0.508,6.849,1.039
	c3.16,2.067,5.92,0.252,6.588,0.592c3.972,2.023,6.347-0.016,6.988,0.299c3.282,1.592,6.836-0.176,7.267,0.006
	c3.821,1.586,5.876-0.6,6.555-0.246c3.022,1.557,5.889-0.744,6.604-0.48c3.686,1.354,6.021-0.881,6.564-0.729
	c3.555,0.985,5.878-1.188,6.464-1.009c3.802,1.172,6.285-1.678,6.967-1.512c3.687,0.901,5.327-1.017,6.835-2.188"/>
<path fill="none" stroke="#000000" stroke-width="3" stroke-miterlimit="10" d="M266.105,302.615
	c2.962,4.213,6.989,2.555,7.39,2.957c3.276,3.33,6.701,1.234,7.396,1.811c3.438,2.854,6.608,0.805,7.111,1.143
	c4.318,2.896,7.132,0.391,7.854,0.787c4.32,2.404,7.174,0.076,7.879,0.398c4.441,2.006,7.148-0.328,7.995,0.055
	c3.999,1.803,7.25-0.547,7.838-0.264c4.312,2.066,7.562-1.02,8.447-0.635c3.862,1.664,6.822-1.148,7.528-0.912
	c4.184,1.393,6.859-1.418,7.47-1.297c4.562,0.912,6.348-1.834,7.229-1.758c3.561,0.301,5.482-1.033,6.521-2.283"/>
<line fill="none" stroke="#000000" stroke-width="1.875" stroke-miterlimit="10" x1="142.91" y1="220.648" x2="187.921" y2="204.229"/>
<line fill="none" stroke="#000000" stroke-width="1.875" stroke-miterlimit="10" x1="157.726" y1="225.391" x2="200.82" y2="206.627"/>
<line fill="none" stroke="#000000" stroke-width="1.875" stroke-miterlimit="10" x1="176.391" y1="227.168" x2="210.952" y2="209.295"/>
<line fill="none" stroke="#000000" stroke-width="1.875" stroke-miterlimit="10" x1="194.466" y1="227.168" x2="223.656" y2="209.249"/>
<line fill="none" stroke="#000000" stroke-width="1.875" stroke-miterlimit="10" x1="210.17" y1="227.168" x2="236.34" y2="209.249"/>
<line fill="none" stroke="#000000" stroke-width="1.875" stroke-miterlimit="10" x1="225.872" y1="227.168" x2="247.529" y2="209.249"/>
<line fill="none" stroke="#000000" stroke-width="1.875" stroke-miterlimit="10" x1="238.613" y1="227.168" x2="257.988" y2="208.636"/>
<line fill="none" stroke="#000000" stroke-width="1.875" stroke-miterlimit="10" x1="249.576" y1="226.871" x2="262.352" y2="214.098"/>
<line fill="none" stroke="#000000" stroke-width="1.875" stroke-miterlimit="10" x1="123.819" y1="166.701" x2="165.342" y2="163.076"/>
<line fill="none" stroke="#000000" stroke-width="1.875" stroke-miterlimit="10" x1="130.689" y1="174.348" x2="171.248" y2="168.42"/>
<line fill="none" stroke="#000000" stroke-width="1.875" stroke-miterlimit="10" x1="138.531" y1="180.636" x2="181.092" y2="172.92"/>
<line fill="none" stroke="#000000" stroke-width="1.875" stroke-miterlimit="10" x1="146.353" y1="186.934" x2="190.936" y2="176.295"/>
<line fill="none" stroke="#000000" stroke-width="1.875" stroke-miterlimit="10" x1="156.427" y1="191.969" x2="203.873" y2="179.389"/>
<line fill="none" stroke="#000000" stroke-width="1.875" stroke-miterlimit="10" x1="167.439" y1="196.711" x2="212.03" y2="182.482"/>
<line fill="none" stroke="#000000" stroke-width="1.875" stroke-miterlimit="10" x1="176.968" y1="200.952" x2="228.061" y2="182.201"/>
<line fill="none" stroke="#000000" stroke-width="1.875" stroke-miterlimit="10" x1="187.921" y1="204.229" x2="238.467" y2="182.482"/>
<line fill="none" stroke="#000000" stroke-width="1.875" stroke-miterlimit="10" x1="200.82" y1="206.627" x2="251.405" y2="181.639"/>
<line fill="none" stroke="#000000" stroke-width="1.875" stroke-miterlimit="10" x1="210.952" y1="209.295" x2="259.28" y2="182.201"/>
<line fill="none" stroke="#000000" stroke-width="1.875" stroke-miterlimit="10" x1="223.656" y1="209.249" x2="266.592" y2="181.639"/>
<line fill="none" stroke="#000000" stroke-width="1.875" stroke-miterlimit="10" x1="236.54" y1="209.146" x2="265.188" y2="187.927"/>
<line fill="none" stroke="#000000" stroke-width="1.875" stroke-miterlimit="10" x1="247.529" y1="209.249" x2="263.278" y2="195.738"/>
<line fill="none" stroke="#000000" stroke-width="1.875" stroke-miterlimit="10" x1="257.988" y1="208.636" x2="262.018" y2="204.697"/>
<path fill="none" stroke="#000000" stroke-width="3" stroke-miterlimit="10" d="M158.193,156.997l-135.914,2.704
	c-3.139,7.63,1.125,12.75,1.125,12.75s-2.25,4.472,4.5,12c1.247,1.389-2.826,6.281,5.625,11.627
	c1.239,0.781-1.585,8.23,8.625,10.499c1.688,0.374-3.858,6.808,10.876,10.499c1.499,0.377-1.166,6.867,10.125,9.377
	c1.688,0.374,1.312,8.438,12.749,9.374c1.415,0.116,1.079,6.72,15.75,5.251c1.876-0.188,2.377,10.885,22.5,3.375
	c2.033-0.76,2.484,10.301,25.125,1.125c1.854-0.751,9.329,8.961,25.875-1.125c0.986-0.602,5.75,9.426,21.375,0.748
	c1.412-0.783,6.188,7.703,18.375-0.748c0.368-0.256,3.705,6.719,15.75,0.748c0.507-0.25,2.471,4.9,12.75,0
	c0.591-0.279,3.975,4.543,13.5-0.374c0.43-0.22,3.45,3.95,9.375,0c0.235-0.158,2.329,3.265,7.5,0.751
	c0.444-0.215,2.938,3.305,6.75,0.374c0.234-0.181,2.509,1.786,4.702-0.646"/>
<line fill="none" stroke="#000000" stroke-width="1.875" stroke-miterlimit="10" x1="27.906" y1="184.451" x2="78.022" y2="178.575"/>
<line fill="none" stroke="#000000" stroke-width="1.875" stroke-miterlimit="10" x1="33.531" y1="196.078" x2="86.021" y2="186.872"/>
<line fill="none" stroke="#000000" stroke-width="1.875" stroke-miterlimit="10" x1="42.155" y1="206.577" x2="94.911" y2="195.463"/>
<line fill="none" stroke="#000000" stroke-width="1.875" stroke-miterlimit="10" x1="53.031" y1="217.076" x2="108.776" y2="202.674"/>
<line fill="none" stroke="#000000" stroke-width="1.875" stroke-miterlimit="10" x1="63.156" y1="226.453" x2="120.76" y2="209.845"/>
<line fill="none" stroke="#000000" stroke-width="1.875" stroke-miterlimit="10" x1="75.905" y1="235.827" x2="132.541" y2="215.02"/>
<line fill="none" stroke="#000000" stroke-width="1.875" stroke-miterlimit="10" x1="91.655" y1="241.078" x2="142.91" y2="220.648"/>
<line fill="none" stroke="#000000" stroke-width="1.875" stroke-miterlimit="10" x1="114.155" y1="244.453" x2="157.726" y2="225.391"/>
<line fill="none" stroke="#000000" stroke-width="1.875" stroke-miterlimit="10" x1="139.281" y1="245.578" x2="176.391" y2="227.168"/>
<line fill="none" stroke="#000000" stroke-width="1.875" stroke-miterlimit="10" x1="165.156" y1="244.453" x2="194.466" y2="227.168"/>
<line fill="none" stroke="#000000" stroke-width="1.875" stroke-miterlimit="10" x1="186.531" y1="245.201" x2="210.17" y2="227.168"/>
<line fill="none" stroke="#000000" stroke-width="1.875" stroke-miterlimit="10" x1="204.906" y1="244.453" x2="225.872" y2="227.168"/>
<line fill="none" stroke="#000000" stroke-width="1.875" stroke-miterlimit="10" x1="220.656" y1="245.201" x2="238.613" y2="227.168"/>
<line fill="none" stroke="#000000" stroke-width="1.875" stroke-miterlimit="10" x1="233.405" y1="245.201" x2="249.576" y2="226.871"/>
<line fill="none" stroke="#000000" stroke-width="1.875" stroke-miterlimit="10" x1="246.905" y1="244.827" x2="259.355" y2="227.168"/>
<line fill="none" stroke="#000000" stroke-width="1.875" stroke-miterlimit="10" x1="256.281" y1="244.827" x2="265.175" y2="228.59"/>
<line fill="none" stroke="#000000" stroke-width="1.875" stroke-miterlimit="10" x1="263.634" y1="245.324" x2="269.027" y2="235.857"/>
<line fill="none" stroke="#000000" stroke-width="1.875" stroke-miterlimit="10" x1="270.53" y1="245.952" x2="272.748" y2="241.742"/>
<path fill="none" stroke="#000000" stroke-width="3" stroke-miterlimit="10" d="M119.347,157.625
	c-0.503,6.389,2.314,7.757,4.474,9.075c0.209,0.127-1.765,3.2,6.87,7.647c0.5,0.258-1.231,4.715,7.845,6.286
	c0.514,0.09-0.814,6.436,7.843,6.354c0.512-0.004,1.562,5.807,10.046,4.858c0.449-0.05,0.597,6.562,11.018,4.86
	c0.365-0.061-0.227,6.889,9.529,4.244c0.434-0.117-1.594,6.104,10.953,3.273c1.23-0.275,0.512,6.07,12.896,2.398
	c0.808-0.238,1.498,5.902,10.135,2.666c0.375-0.143,2.384,5.854,12.699-0.045c0.984-0.562,2.545,4.896,12.688,0
	c0.582-0.281,3.813,3.01,11.188,0c0.688-0.281,4.916,2.506,10.458-0.613c0,0,1.575,0.812,4.095,0.916"/>
<line fill="none" stroke="#000000" stroke-width="1.875" stroke-miterlimit="10" x1="70.91" y1="169.094" x2="123.819" y2="166.701"/>
<line fill="none" stroke="#000000" stroke-width="1.875" stroke-miterlimit="10" x1="78.022" y1="178.575" x2="130.689" y2="174.348"/>
<line fill="none" stroke="#000000" stroke-width="1.875" stroke-miterlimit="10" x1="86.021" y1="186.872" x2="138.531" y2="180.636"/>
<line fill="none" stroke="#000000" stroke-width="1.875" stroke-miterlimit="10" x1="94.911" y1="195.463" x2="146.375" y2="186.988"/>
<line fill="none" stroke="#000000" stroke-width="1.875" stroke-miterlimit="10" x1="108.865" y1="202.697" x2="156.421" y2="191.85"/>
<line fill="none" stroke="#000000" stroke-width="1.875" stroke-miterlimit="10" x1="120.76" y1="209.845" x2="167.439" y2="196.711"/>
<line fill="none" stroke="#000000" stroke-width="1.875" stroke-miterlimit="10" x1="132.541" y1="215.02" x2="176.968" y2="200.952"/>
<path fill="none" stroke="#000000" stroke-width="3" stroke-miterlimit="10" d="M67.948,158.427
	c-1.504,6.181,1.087,9.36,2.966,10.667c0.396,0.278-0.204,8.617,7.107,9.481c0.209,0.026-2.018,6.683,7.999,8.297
	c0.334,0.054-1.926,8.903,8.894,8.593c0.422-0.012,1.676,9.416,13.86,7.21c0.479-0.085,2.206,8.425,11.986,7.173
	c0,0-0.237,8.775,11.779,5.174c0.354-0.105,2.104,8.293,10.371,5.629c0.368-0.115,1.969,9.236,14.812,4.74
	c0.703-0.246,6.847,6.363,18.666,1.779c0.694-0.27,3.302,5.615,18.075,0c0.574-0.22,5.196,7.127,15.703,0
	c0.469-0.32,1.507,6.766,15.703,0c0.562-0.27,2.205,7.355,12.737,0c0.312-0.22,5.316,7.078,10.965-0.297
	c0.134-0.174,3.36,4.553,9.812,0.35c0.334-0.217,2.788,3.176,5.994,0.65"/>
<line fill="none" stroke="#000000" stroke-width="1.875" stroke-miterlimit="10" x1="23.406" y1="172.452" x2="70.91" y2="169.094"/>
<line fill="none" stroke="#000000" stroke-width="1.875" stroke-miterlimit="10" x1="258.996" y1="227.891" x2="263.661" y2="221.744"/>
<path fill="none" stroke="#000000" stroke-width="1.875" stroke-miterlimit="10" d="M275.566,254.176
	c-34.035-0.285-34.604,56.201-58.771,56.201c-13.018,0-9.147-17.371,0-17.037c7.866,0.287,6.577,9.744,4.146,9.744
	c-3.146,0-1.855-4.289-4.146-4.006c-2.799,0.35-3.575,5.291,0,5.291c18.591,0,22.021-56.344,59.918-56.344"/>
<line fill="none" stroke="#000000" stroke-width="1.875" stroke-miterlimit="10" x1="481.377" y1="220.648" x2="436.365" y2="204.229"/>
<line fill="none" stroke="#000000" stroke-width="1.875" stroke-miterlimit="10" x1="466.562" y1="225.391" x2="423.468" y2="206.627"/>
<line fill="none" stroke="#000000" stroke-width="1.875" stroke-miterlimit="10" x1="447.896" y1="227.168" x2="413.335" y2="209.295"/>
<line fill="none" stroke="#000000" stroke-width="1.875" stroke-miterlimit="10" x1="429.822" y1="227.168" x2="400.634" y2="209.249"/>
<line fill="none" stroke="#000000" stroke-width="1.875" stroke-miterlimit="10" x1="414.115" y1="227.168" x2="387.948" y2="209.249"/>
<line fill="none" stroke="#000000" stroke-width="1.875" stroke-miterlimit="10" x1="398.411" y1="227.168" x2="376.759" y2="209.249"/>
<line fill="none" stroke="#000000" stroke-width="1.875" stroke-miterlimit="10" x1="385.675" y1="227.168" x2="366.3" y2="208.636"/>
<line fill="none" stroke="#000000" stroke-width="1.875" stroke-miterlimit="10" x1="374.712" y1="226.871" x2="361.107" y2="213.244"/>
<line fill="none" stroke="#000000" stroke-width="1.875" stroke-miterlimit="10" x1="500.469" y1="166.701" x2="458.946" y2="163.076"/>
<line fill="none" stroke="#000000" stroke-width="1.875" stroke-miterlimit="10" x1="493.6" y1="174.348" x2="453.035" y2="168.42"/>
<line fill="none" stroke="#000000" stroke-width="1.875" stroke-miterlimit="10" x1="485.756" y1="180.636" x2="443.196" y2="172.92"/>
<line fill="none" stroke="#000000" stroke-width="1.875" stroke-miterlimit="10" x1="477.935" y1="186.934" x2="433.352" y2="176.295"/>
<line fill="none" stroke="#000000" stroke-width="1.875" stroke-miterlimit="10" x1="467.861" y1="191.969" x2="420.41" y2="179.389"/>
<line fill="none" stroke="#000000" stroke-width="1.875" stroke-miterlimit="10" x1="456.849" y1="196.711" x2="412.258" y2="182.482"/>
<line fill="none" stroke="#000000" stroke-width="1.875" stroke-miterlimit="10" x1="447.322" y1="200.952" x2="396.227" y2="182.201"/>
<line fill="none" stroke="#000000" stroke-width="1.875" stroke-miterlimit="10" x1="436.365" y1="204.229" x2="385.821" y2="182.482"/>
<line fill="none" stroke="#000000" stroke-width="1.875" stroke-miterlimit="10" x1="423.468" y1="206.627" x2="372.883" y2="181.639"/>
<line fill="none" stroke="#000000" stroke-width="1.875" stroke-miterlimit="10" x1="413.335" y1="209.295" x2="365.008" y2="182.201"/>
<line fill="none" stroke="#000000" stroke-width="1.875" stroke-miterlimit="10" x1="400.634" y1="209.249" x2="357.696" y2="181.639"/>
<line fill="none" stroke="#000000" stroke-width="1.875" stroke-miterlimit="10" x1="387.743" y1="209.146" x2="357.133" y2="186.42"/>
<line fill="none" stroke="#000000" stroke-width="1.875" stroke-miterlimit="10" x1="376.759" y1="209.249" x2="359.732" y2="194.643"/>
<line fill="none" stroke="#000000" stroke-width="1.875" stroke-miterlimit="10" x1="366.3" y1="208.636" x2="361.023" y2="203.48"/>
<path fill="none" stroke="#000000" stroke-width="3" stroke-miterlimit="10" d="M466.093,156.997l135.914,2.704
	c3.14,7.63-1.125,12.75-1.125,12.75s2.25,4.472-4.498,12c-1.247,1.389,2.83,6.281-5.625,11.627c-1.24,0.781,1.586,8.23-8.626,10.499
	c-1.688,0.374,3.858,6.808-10.876,10.499c-1.499,0.377,1.168,6.867-10.125,9.377c-1.688,0.374-1.312,8.438-12.749,9.374
	c-1.413,0.116-1.079,6.72-15.75,5.251c-1.876-0.188-2.377,10.885-22.5,3.375c-2.032-0.76-2.483,10.301-25.124,1.125
	c-1.854-0.751-9.329,8.961-25.875-1.125c-0.988-0.602-5.752,9.426-21.375,0.748c-1.411-0.783-6.188,7.703-18.377-0.748
	c-0.366-0.256-3.705,6.719-15.75,0.748c-0.502-0.25-2.471,4.9-12.749,0c-0.589-0.279-3.976,4.543-13.5-0.374
	c-0.43-0.22-3.449,3.95-9.374,0c-0.237-0.158-2.33,3.265-7.501,0.751c-0.444-0.215-2.939,3.305-6.75,0.374
	c-0.237-0.181-3.396,1.599-5.589-0.835"/>
<line fill="none" stroke="#000000" stroke-width="1.875" stroke-miterlimit="10" x1="596.384" y1="184.451" x2="546.267" y2="178.575"/>
<line fill="none" stroke="#000000" stroke-width="1.875" stroke-miterlimit="10" x1="590.759" y1="196.078" x2="538.267" y2="186.872"/>
<line fill="none" stroke="#000000" stroke-width="1.875" stroke-miterlimit="10" x1="582.133" y1="206.577" x2="529.375" y2="195.463"/>
<line fill="none" stroke="#000000" stroke-width="1.875" stroke-miterlimit="10" x1="571.257" y1="217.076" x2="515.512" y2="202.674"/>
<line fill="none" stroke="#000000" stroke-width="1.875" stroke-miterlimit="10" x1="561.132" y1="226.453" x2="503.527" y2="209.845"/>
<line fill="none" stroke="#000000" stroke-width="1.875" stroke-miterlimit="10" x1="548.383" y1="235.827" x2="491.743" y2="215.02"/>
<line fill="none" stroke="#000000" stroke-width="1.875" stroke-miterlimit="10" x1="532.633" y1="241.078" x2="481.377" y2="220.648"/>
<line fill="none" stroke="#000000" stroke-width="1.875" stroke-miterlimit="10" x1="510.133" y1="244.453" x2="466.562" y2="225.391"/>
<line fill="none" stroke="#000000" stroke-width="1.875" stroke-miterlimit="10" x1="485.009" y1="245.578" x2="447.896" y2="227.168"/>
<line fill="none" stroke="#000000" stroke-width="1.875" stroke-miterlimit="10" x1="459.134" y1="244.453" x2="429.822" y2="227.168"/>
<line fill="none" stroke="#000000" stroke-width="1.875" stroke-miterlimit="10" x1="437.759" y1="245.201" x2="414.115" y2="227.168"/>
<line fill="none" stroke="#000000" stroke-width="1.875" stroke-miterlimit="10" x1="419.382" y1="244.453" x2="398.411" y2="227.168"/>
<line fill="none" stroke="#000000" stroke-width="1.875" stroke-miterlimit="10" x1="403.632" y1="245.201" x2="385.675" y2="227.168"/>
<line fill="none" stroke="#000000" stroke-width="1.875" stroke-miterlimit="10" x1="390.883" y1="245.201" x2="374.712" y2="226.871"/>
<line fill="none" stroke="#000000" stroke-width="1.875" stroke-miterlimit="10" x1="377.383" y1="244.827" x2="364.933" y2="227.168"/>
<line fill="none" stroke="#000000" stroke-width="1.875" stroke-miterlimit="10" x1="368.009" y1="244.827" x2="358.294" y2="227.307"/>
<line fill="none" stroke="#000000" stroke-width="1.875" stroke-miterlimit="10" x1="360.654" y1="245.324" x2="354.733" y2="235.182"/>
<line fill="none" stroke="#000000" stroke-width="1.875" stroke-miterlimit="10" x1="353.758" y1="245.952" x2="351.297" y2="241.031"/>
<path fill="none" stroke="#000000" stroke-width="3" stroke-miterlimit="10" d="M504.943,157.625
	c0.502,6.389-2.312,7.757-4.474,9.075c-0.21,0.127,1.765,3.2-6.869,7.647c-0.5,0.258,1.235,4.715-7.844,6.286
	c-0.518,0.09,0.812,6.436-7.848,6.354c-0.511-0.004-1.562,5.807-10.046,4.858c-0.446-0.05-0.598,6.562-11.02,4.86
	c-0.363-0.061,0.227,6.889-9.527,4.244c-0.436-0.117,1.593,6.104-10.953,3.273c-1.231-0.275-0.512,6.07-12.896,2.398
	c-0.809-0.238-1.499,5.902-10.135,2.666c-0.373-0.143-2.385,5.854-12.701-0.045c-0.984-0.562-2.546,4.896-12.688,0
	c-0.582-0.281-3.814,3.01-11.188,0c-0.689-0.281-4.914,2.506-10.459-0.613c0,0-2.066,1.062-5.239,0.914"/>
<line fill="none" stroke="#000000" stroke-width="1.875" stroke-miterlimit="10" x1="553.377" y1="169.094" x2="500.469" y2="166.701"/>
<line fill="none" stroke="#000000" stroke-width="1.875" stroke-miterlimit="10" x1="546.267" y1="178.575" x2="493.6" y2="174.348"/>
<line fill="none" stroke="#000000" stroke-width="1.875" stroke-miterlimit="10" x1="538.267" y1="186.872" x2="485.756" y2="180.636"/>
<line fill="none" stroke="#000000" stroke-width="1.875" stroke-miterlimit="10" x1="529.375" y1="195.463" x2="477.908" y2="186.988"/>
<line fill="none" stroke="#000000" stroke-width="1.875" stroke-miterlimit="10" x1="515.424" y1="202.697" x2="467.865" y2="191.85"/>
<line fill="none" stroke="#000000" stroke-width="1.875" stroke-miterlimit="10" x1="503.527" y1="209.845" x2="456.849" y2="196.711"/>
<line fill="none" stroke="#000000" stroke-width="1.875" stroke-miterlimit="10" x1="491.743" y1="215.02" x2="447.322" y2="200.952"/>
<path fill="none" stroke="#000000" stroke-width="3" stroke-miterlimit="10" d="M556.339,158.427
	c1.504,6.181-1.083,9.36-2.962,10.667c-0.398,0.278,0.2,8.617-7.11,9.481c-0.211,0.026,2.019,6.683-8,8.297
	c-0.334,0.054,1.928,8.903-8.89,8.593c-0.426-0.012-1.68,9.416-13.864,7.21c-0.479-0.085-2.207,8.425-11.985,7.173
	c0,0,0.237,8.775-11.774,5.174c-0.359-0.105-2.107,8.293-10.371,5.629c-0.371-0.115-1.974,9.236-14.814,4.74
	c-0.703-0.246-6.848,6.363-18.667,1.779c-0.691-0.27-3.3,5.615-18.074,0c-0.572-0.22-5.19,7.127-15.701,0
	c-0.472-0.32-1.509,6.766-15.702,0c-0.563-0.27-2.205,7.355-12.739,0c-0.312-0.22-5.317,7.078-10.963-0.297
	c-0.137-0.174-3.329,4.496-9.778,0.297c-0.336-0.22-4.654,3.041-6.638,0.137"/>
<line fill="none" stroke="#000000" stroke-width="1.875" stroke-miterlimit="10" x1="600.882" y1="172.452" x2="553.377" y2="169.094"/>
<line fill="none" stroke="#000000" stroke-width="1.875" stroke-miterlimit="10" x1="365.287" y1="227.891" x2="359.982" y2="220.557"/>
<path fill="none" stroke="#000000" stroke-width="1.875" stroke-miterlimit="10" d="M348.722,254.176
	c34.035-0.285,34.604,56.201,58.771,56.201c13.017,0,9.147-17.371,0-17.037c-7.862,0.287-6.579,9.744-4.146,9.744
	c3.146,0,1.854-4.289,4.146-4.006c2.802,0.35,3.575,5.291,0,5.291c-18.591,0-22.021-56.344-59.919-56.344"/>
<path fill="none" stroke="#000000" stroke-width="2.5" d="M293.332,158.141c-12.381,5.363-22.306,16.021-27.417,29.408
	c-2.438,6.375-3.787,13.365-3.787,20.703c0,29.773,22.146,53.91,49.462,53.91c27.312,0,49.462-24.137,49.462-53.91
	c0-7.689-1.486-14.996-4.15-21.613c-4.269-10.604-11.579-19.424-20.729-25.146"/>
<line fill="none" stroke="#000000" stroke-width="3" stroke-miterlimit="10" x1="291.544" y1="164.025" x2="278.092" y2="240.617"/>
<line fill="none" stroke="#000000" stroke-width="3" stroke-miterlimit="10" x1="332.467" y1="168.201" x2="345.448" y2="239.492"/>
<line fill="none" stroke="#000000" stroke-width="1.875" stroke-miterlimit="10" x1="303.17" y1="186.617" x2="302.977" y2="257.074"/>
<line fill="none" stroke="#000000" stroke-width="1.875" stroke-miterlimit="10" x1="307.67" y1="198.242" x2="307.505" y2="257.883"/>
<line fill="none" stroke="#000000" stroke-width="1.875" stroke-miterlimit="10" x1="311.842" y1="207.992" x2="311.869" y2="258.207"/>
<line fill="none" stroke="#000000" stroke-width="1.875" stroke-miterlimit="10" x1="316.061" y1="200.152" x2="315.995" y2="257.963"/>
<line fill="none" stroke="#000000" stroke-width="1.875" stroke-miterlimit="10" x1="320.28" y1="191.891" x2="320.365" y2="257.154"/>
<line fill="none" stroke="#000000" stroke-width="1.875" stroke-miterlimit="10" x1="278.795" y1="238.086" x2="302.842" y2="222.055"/>
<line fill="none" stroke="#000000" stroke-width="1.875" stroke-miterlimit="10" x1="279.92" y1="230.914" x2="302.698" y2="216.43"/>
<line fill="none" stroke="#000000" stroke-width="1.875" stroke-miterlimit="10" x1="281.326" y1="223.883" x2="302.698" y2="209.68"/>
<line fill="none" stroke="#000000" stroke-width="1.875" stroke-miterlimit="10" x1="282.17" y1="217.555" x2="303.12" y2="203.914"/>
<line fill="none" stroke="#000000" stroke-width="1.875" stroke-miterlimit="10" x1="283.436" y1="210.805" x2="302.983" y2="198.289"/>
<line fill="none" stroke="#000000" stroke-width="1.875" stroke-miterlimit="10" x1="344.744" y1="238.086" x2="320.698" y2="222.055"/>
<line fill="none" stroke="#000000" stroke-width="1.875" stroke-miterlimit="10" x1="343.619" y1="230.914" x2="320.842" y2="216.43"/>
<line fill="none" stroke="#000000" stroke-width="1.875" stroke-miterlimit="10" x1="342.217" y1="223.883" x2="320.842" y2="209.68"/>
<line fill="none" stroke="#000000" stroke-width="1.875" stroke-miterlimit="10" x1="341.369" y1="217.555" x2="320.42" y2="203.914"/>
<line fill="none" stroke="#000000" stroke-width="1.875" stroke-miterlimit="10" x1="339.823" y1="210.383" x2="320.561" y2="198.289"/>
<line fill="none" stroke="#000000" stroke-width="1.875" stroke-miterlimit="10" x1="303.804" y1="36.801" x2="301.365" y2="53.125"/>
<line fill="none" stroke="#000000" stroke-width="1.875" stroke-miterlimit="10" x1="309.421" y1="36.988" x2="306.06" y2="53.441"/>
<line fill="none" stroke="#000000" stroke-width="1.875" stroke-miterlimit="10" x1="314.478" y1="37.643" x2="310.182" y2="54.594"/>
<line fill="none" stroke="#000000" stroke-width="1.875" stroke-miterlimit="10" x1="320.676" y1="38.749" x2="314.009" y2="56.086"/>
<line fill="none" stroke="#000000" stroke-width="1.875" stroke-miterlimit="10" x1="326.027" y1="41.372" x2="318.472" y2="58.057"/>
<line fill="none" stroke="#000000" stroke-width="1.875" stroke-miterlimit="10" x1="330.01" y1="45.055" x2="321.801" y2="60.667"/>
<path fill="none" stroke="#000000" stroke-width="1.875" stroke-linecap="round" stroke-linejoin="round" stroke-miterlimit="10" d="
	M297.591,52.81l1.345-16.196c0,0,32.13-1.957,33.913,13.573l-0.418,1.784c0,0-4.551,14.607-6.926,12.068
	C314.8,52.601,297.591,52.81,297.591,52.81z"/>
<path fill="none" stroke="#000000" stroke-width="1.875" stroke-miterlimit="10" d="M297.727,53.36
	c-1.39,3.038-1.343,4.357-1.81,7.592c-0.294,2.035-0.624,3.269-1.745,5.009c-0.821,1.275-2.313,3.894-2.652,5.508
	c-0.483,2.299,4.071-0.269,3.422,4.21"/>
<path fill="none" stroke="#000000" stroke-width="1.875" stroke-miterlimit="10" d="M301.38,61.722
	c0.104,1.329,0.15,3.046-0.921,2.709c-2.075-0.596,0.62-0.408,0.271-2.669c0.25-0.477-0.691,2.722-0.464,2.705
	c1.648-3.299,0.185-3.42-0.266-3.688"/>
<g>
	<path d="M306.779,62.067c-0.709-0.567-1.595-0.741-2.479-0.844c-0.888-0.101-1.784-0.124-2.685-0.106
		c-0.897,0.018-1.786,0.293-2.666,0.165c-0.896-0.094-1.734-0.305-2.743-0.581l-0.021-0.005c-0.069-0.018-0.109-0.091-0.091-0.159
		c0.003-0.017,0.01-0.028,0.018-0.04c0.342-0.496,0.7-1.364,1.164-1.586c0.478-0.222,1.237-0.112,1.582,0.124
		c0.983-0.21,1.964,0.11,2.917,0.29c0.96,0.176,1.91,0.434,2.822,0.814c0.879,0.403,2.465,0.123,2.354,1.781
		c0.031,0.054,0.018,0.124-0.041,0.156C306.866,62.102,306.815,62.095,306.779,62.067z"/>
</g>
<g>
	<path d="M304.534,65.113c-0.14-0.783-0.647-1.3-1.258-1.687c-0.599-0.395-1.28-0.683-1.978-0.928
		c-0.706-0.244-1.491-0.229-2.139-0.596c-0.674-0.345-1.274-0.767-2.003-1.367l-0.021-0.015c-0.057-0.047-0.065-0.132-0.019-0.19
		c0.004-0.006,0.012-0.013,0.018-0.019c0.416-0.35,0.896-0.477,1.344-0.553c0.452-0.07,0.897-0.074,1.327-0.013
		c0.876,0.089,1.581,0.677,2.297,1.143c0.722,0.464,1.407,1.02,1.957,1.728c0.526,0.692,0.944,1.654,0.698,2.494l-0.003,0.013
		c-0.021,0.061-0.081,0.095-0.144,0.077C304.573,65.188,304.544,65.153,304.534,65.113z"/>
</g>
<circle fill="none" stroke="#000000" stroke-width="1.875" stroke-miterlimit="10" cx="263.045" cy="137.802" r="9.562"/>
<circle fill="none" stroke="#000000" stroke-width="1.875" stroke-miterlimit="10" cx="263.045" cy="137.802" r="13.5"/>
<g>
	<path fill="none" stroke="#000000" stroke-width="1.7" stroke-miterlimit="10" d="M299.007,75.818
		c-0.646-0.523,0.878,0.046-0.262-0.725c-1.688,0.536-2.061-0.188-1.736-0.364c-0.589-0.225,1.163,0.03,0.803-0.198
		c0.452-0.188-0.933,0.328-0.467,0.271c-2.728-0.029-5.119,2.254-3.595,3.573c-0.089-0.023,1.224,0.216,1.087,0.242
		c1.463-0.038,3.126-0.103,2.804,0.686c-0.486-0.024-1.253-0.029-1.74,0.011c0.826-0.974,2.46-0.811,2.526-2.516
		c-0.622-0.161-2.803-0.292-3.427-0.173c-0.172,1.675,0.98,3.574,1.979,4.925c-1.567,0.349-3.354,0.535-3.706-1
		c0.687-0.202,1.78-0.146,2.474,0.001c-0.438,1.889-0.211,3.938-0.318,5.893c-1.154-0.386-2.12-1.463-2.915-2.48
		c1.512-0.512,2.077-1.078,1.554-2.323c-0.223,3.023,0.038,5.106,1.378,7.798c-1.548,0.338-2.36,0.193-2.914-1.004
		c3.134,0.434,3.02-4.186,0.013-3.777c-0.396,2.327,2.484,5.95-0.366,6.664c-0.072-0.59-0.412-1.591-0.441-1.88
		c-0.756,1.176-0.521,2.49,0.619,3.445c-0.688-0.018-0.246-0.469,0.771-0.428c-0.938,1.694-0.581,3.613-0.694,5.547
		c-0.688,0.026,0.37-0.237,0.364-1.732c-1.954,1.587-1.358,4.668-1.489,7.038c-0.496,0.052-0.912,0.037-1.406,0
		c0.148-0.692,0.438-1.916,0.807-2.538c0.806,1.479,0.663,3.886,1.359,5.529c-0.146-0.018-0.812,0.026-0.982,0.065
		c0.815-0.097,1.688,0.109,2.479,0.066c-0.507,1.09-1.747,1.383-3.19,1.002c0.576-1.142,0.801-2.369,0.678-3.644
		c3.772,0.293,7.214-5.09,7.73,0.333c1.753-6.664-6.658-6.146-4.753-0.438c1.611,0.319,3.148,0.076,4.396-0.759
		c0.125-1.457,0.15-2.966-0.171-4.392c2.181,1.131,1.606,4.272,1.793,6.652c0.521,0.129,1.229,0.126,1.763,0.006
		c0.344-1.963,0.409-3.861-1.499-4.825c0.445-0.185,0.473-0.264,1.125-0.319c-0.151,0.982,0.445,1.641,0.495,2.502
		c0.583,0.172,1.544,0.164,2.129,0.01c0.729-3.55-0.959-4.856-3.577-4.42c-1.938,0.324-2.437,2.684-4.625,0.807
		c-1.271-1.09-1.292-4.503-1.087-6.024c5.625-0.325,3.109,0.549,6.812,3.975c1.405-0.213,3.368,0.914,1.84,0.414
		c-0.04-0.469,0.004-0.929-0.012-1.389c0.664-0.2,2.2-0.206,2.896,0c-0.185,1.045-0.166,2.334-0.647,3.252
		c0.027-0.007,0.973,0.002,1.023,0.009c0.073-1.762,0.602-3.365,0.372-5.145c-1.491,0.004-2.212,0.422-2.521,1.761
		c3.015,0.755,4.363-0.601,3.646-3.627c-2.524-0.244-2.61,2.847-4.812,2.768c-2.774-0.1-1.857-3.005,0.662-2.822
		c-1.95-0.002-3.935,0.054-5.859-0.057c-1.753-5.482,4.515-1.128,5.876-0.686c0.306-1.957,0.609-4.225-1.752-4.076
		c0.115,0.625-0.221,1.506-0.113,2.136c-1.731,0.384-3.292-0.346-3.31-2.138c2.159,0.356,4.347,0.104,3.685-2.579
		c-1.197,0.558-1.858,0.499-3.227,0.648c0.799,0.126,1.695-0.027,2.481-0.045c-0.983-1.884-5.995,1.295-4.719-1.804
		c0.857-2.085,4.506-1.801,5.554-0.159c-0.304-1.269-1.987-4.183-2.851-5.004c0.442,0.003,3.575,5.528,3.502,4.692
		c-1.478-0.507-1.201-3.971-2.438-5.618c-0.86-0.112-0.563-1.449-1.562-1.501c-0.182-0.389-0.312-0.228-0.438-0.499
		c-1.405-0.859,0.538,12.588,3.693,14.039c0.458-1.877-0.521-3.654-1.014-5.171c1.166,0.038,2.478-0.214,3.638-0.112
		c-0.052-0.547,0.184-1.261,0.104-1.81c1.802-0.727,2.06,1.432,2.874,2.229c-0.084-1.29,1.229-2.506,2.271-2.296
		c0.099,0.127,0.006-1.089-0.012-1.006c-0.615-1.218-2.509,0.593-2.021-0.51c0.919-0.018,2.18-0.8,3.116-0.68
		c-1.594,0.324-1.5,0.261-1.547-1.345c5.366-1.9,4.526,2.02,4.212,6.161c-0.044-0.009-0.97-0.007-1.018,0.002
		c1.021-7.83-6.016-2.156-1.604,1.877c-1.804,0.147-4.642-5.57-5.914-1.191c2.008,0.55,5.211,0.176,5.549,2.69
		c-1.683,0.325-2.372,0.151-2.527-1.389c0.927-0.068,1.474-0.053,2.244,0.292c-0.365,1.246-1.562,1.725-2.994,1.471
		c0.03-0.441-0.052-0.924-0.001-1.385c2.403-0.29,2.546,2.5,2.056,4.386c-0.515-0.062-1.172,0.161-1.68,0.114
		c0.479,2.095-1.323,4.68-3.468,2.479c-2.296-2.358,1.926-3.642,3.735-3.252c0.113,5.368,0.381,6.033-2.896,9.298
		c-1.728,1.719-2.87,6.108-5.25,6.361c-0.166-0.197-0.604-0.846-0.729-1.029c0.668,2.391,0.938,3.979-2.259,4.152
		c0.012,1.395-0.492,1.727-0.88,2.891c-1.479,0.211-3.019,0.062-4.394-0.397c-0.056-1.333-0.023-2.705-0.046-4.058"/>
	<path fill="none" stroke="#000000" stroke-width="1.7" stroke-miterlimit="10" d="M296.983,89.867
		c0.201-7.85-3.125-1.996-2.104,2.861c1.188,0.324,2.393,0.639,3.591,0.943c-4.242,4.208-9.386-2.605-0.035-2.82
		c0.213-1.712-0.738-3.065-2.497-2.781c-0.588,2.479-1.104,6.384-0.4,8.868c0.396,1.405,1.503,1.911,1.797,3.352
		c-1.542,0.572-3.188,0.548-4.816,0.394c-0.578-2.974,2.935-3.583,5.173-4.132c0.585-2.159,0.031-4.058-2.463-4.106
		c1.299,2.323,0.341,5.068,4.354,4.602c-0.375,1.123-1.522,1.791-2.894,1.823c-0.538-2.682-0.842-5.104-0.822-7.837
		c4.548,1.193,10.233,3.797,5.382,8.372c-0.819,0.774-3.208,1.146-3.645,2.244c-0.423,1.059,0.604,1.847,0.404,2.613
		c-0.3,1.137,0.638,4.308-2.729,3.252c-1.961-0.615-1.542-3.107-1.295-4.813c0.234,0.702,4.163,10.486-0.52,6.98
		c-3.423-2.563,5.227-7.937-1.309-9.66c-0.007,2.469,1.18,4.234,3.146,5.541c-0.045-0.138-0.004-0.242,0.121-0.312
		c-1.479-5.535-7.966-15.222,1.883-15.065c0.232-1.182-0.251-1.589-1.073-2.195"/>
	<path fill="none" stroke="#000000" stroke-width="1.7" stroke-miterlimit="10" d="M314.323,56.587
		c-0.388-0.022-0.726-0.149-1.106-0.174c-0.207,1.055-0.125,1.218,0.578,1.777c0.396,0.317,0.372-0.141,0.57,0.369
		c0.085,0.212-0.16,0.892-0.141,1.178c0.154,2.125,0.577-0.69,0.999-0.944c0.799-0.48,1.237,0.883,1.449,1.437
		c-0.024-0.51-0.19-2.594-1.226-2.156c-0.616,0.262-0.195,1.168,0.014,1.579c-1.078-0.87-0.287-2.415-1.4-3.171
		c-0.101,1.037,0.941,4.125,2.387,3.94c0.08-0.387-0.103-0.608-0.508-0.56c0.713,0.344,2.026,0.941,2.421,1.597
		c-1.163-0.444-2.416-1.032-3.556-1.297c-0.071,1.066-0.003,3.805,1.808,3.371c-0.382-0.161-1.411-0.448-1.32-0.944
		c0.118-0.69,2.396-1.213,3-1.32c-1.676-0.328-0.961,2.819,0.687,2.441c0.465-1.565-1.469-0.794-1.256-1.785
		c0.604-0.167,1.41-0.222,1.938,0.173c0.033-0.378-0.489-0.832-0.379-1.065c0.207-0.425,1.732-0.224,1.951,0.126
		c0.259,0.424-0.268,1.3-0.074,1.834c0.192,0.526,0.55,0.775,1.102,0.914c-0.896-0.175-0.633,0.866-1.155,1.262
		c-0.635,0.479-1.312,0.129-1.444-0.633c0.987-0.694,2.24-0.603,3.395-0.645c-0.229-0.579-0.693-1.078-1.205-1.408
		c0.753,0.132,4.225,2.402,2.99,3.646c0.146,0.036,0.304,0.054,0.449,0.01c0.137-0.821-0.213-1.919-1.104-2.142
		c0.088,0.908,1.155,1.804,1.963,2.168c0.188-0.217,0.338-0.157,0.553-0.319c0.537,0.914,1.431,3.891-0.577,2.271
		c0.099-0.065,0.227-0.22,0.317-0.274c-0.217-0.324-0.646-0.407-1.039-0.368c0.356,0.884,1.766,0.708,2.599,0.747
		c0.236,0.489,0.938,1.174,0.561,1.591c-0.522,0.571-1.979-0.146-2.034-0.834c1.062-0.309,1.1,1.071,1.566,1.669
		c0.306,0.389,0.729,0.6,1.031,0.993c0.025-0.152,0.033-0.306,0.021-0.458c-0.013,1.554,0.503,5.46,0.409,7.01
		c-0.537,0.322-1.169-2.887-1.266-3.315c-0.062-0.274-0.193-0.656-0.062-0.931c0.072-0.149,0.453-0.141,0.473-0.2
		c0.158-0.469,0.402-0.497-0.37-0.961c-0.562-0.337-1.36-0.352-1.99-0.251c0.083,1.008,1.062,0.905,1.716,1.345
		c0.807,0.542,0.7,1.099,0.582,2.007c-0.271,2.036-2.628,1.742-2.389-0.354c1.655-0.394,2.106,1.926,2.235,2.496
		c0.146,0.653,1.12,0.812,1.235,1.399c0.127,0.634-1.498,1.197-1.895,1.564c-0.164-0.451-1.138,0.983-1.151,0.494
		c-0.926,0.094,0-0.494-1.323-0.148c-0.645,0.144-1.788,0.237-2.205,0.832c-0.271,0.384-0.009,1.129-0.418,1.415
		c-0.588,0.407-1.41-0.424-1.547-0.965c-0.28-1.107,0.885-1.555,1.745-1.842c-0.988-0.015-1.985-0.475-2.958-0.371
		c-0.141,0.665,0.639,0.888,1.016,1.279c-1.021,0.261-1.987,0.542-2.571-0.526c-0.525-0.965,0.119-1.993,1.237-2.09
		c-0.955-0.379-2.021-0.498-3.032-0.627c-0.229,0.794,0.529,1.408,0.642,2.148c-0.412,0.178-0.855,0.315-1.318,0.267
		c0.041-0.255-0.059-0.563-0.027-0.822c-0.455,0.174-1.311,0.646-1.727,0.233c-0.587-0.584,0.16-1.72,0.803-1.859
		c-0.553-0.312-1.84-0.294-2.17-0.8c0.754-0.195,1.521-0.259,2.25-0.518c0.146-0.958-0.472-3.69-0.854-5.13
		c0.561-0.338,1.365-0.456,1.913-0.654c-0.247-0.21,0.238,0.227,0,0c0.694-0.072,0.688-0.541,1.362-0.345
		c-0.5-0.348-0.869-1.32-1.288-1.883c1.417-0.323,0.888-2.931,0.335-3.842c-0.525-0.876-1.271-1.455-1.17-2.377
		c0.08-0.719,0.794-1.876-0.33-2.246c0.972-0.514,2.484,0.292,3.016,1.157c0.538,0.879,0.053,0.795-0.207,1.335
		c-0.396,0.813-0.281,2.076,0.873,2.371c-1.227-0.424-2.868-0.213-2.742-2.047c0.824-0.092,1.49,0.524,2.285,0.553
		c0.021-0.723,0.149-1.585-0.11-2.261c0.188,2.607,1.802,5.181,3.024,7.429c-0.557-0.023-2.312-0.359-2.742,0.104
		c-0.482,0.519,0.252,1.409,0.854,1.549c1.877,0.435,0.205-3.5,3.032-2.872c-0.351,0.051-0.716-0.036-0.958-0.266
		c1.232,0.617,2.379,1.593,3.665,2.142c-0.786-1.644-3.343-2.641-3.671-4.502c1.981,0.822,3.438,1.88,4.195,3.949
		c0.391,1.071-0.586,3.439,0.944,3.46c-1.366-0.103-4.729-0.933-5.445-2.232c-0.294-0.53-0.114-1.236,0.524-1.424
		c-1.054-0.645-1.892-0.229-1.764,1.075c0.132,1.388,1.377,1.96,2.035,3.032c-1.31,0.188-4.114-1.886-5.163-0.565
		c0.479,0.085,1.084-0.05,1.312-0.457c-2.039-1.346-2.229,2.229-0.69,2.986c0.601,0.298,1.345-0.027,1.803,0.541
		c0.482,0.595,0.158,2.074-0.269,2.61c-0.403,0.504-1.288,0.908-1.688,0.135c-0.378-0.732,0.511-1.392,0.835-1.941
		c0.664-1.131,0.013-3.136-1.599-2.442c1.843-0.953,4.794-3.3,5.541-0.195c0.165,0.695,0.386,1.775-0.189,2.344
		c-0.337,0.332-0.951,0.11-1.188,0.562c-0.446,0.835,0.717,3.203,1.636,2.912c1.347-0.427,2.146-2.749,1.142-3.746
		c0.733-0.044,3.148,2.565,3.844,2.777c0.235-0.949-4.217-3.061-4.616-2.508c-0.707,0.97,2.089,2.894,2.806,3.084
		c-1.382-0.614-7.204-4.467-3.288-5.556c1.222-0.34,2.424-0.052,3.529,0.475c0.559,0.269,0.92,0.565,1.584,0.513
		c-0.436,0.293-0.855,0.715-1.038,1.197c1.79-1.032,0.952-3.793-0.534-4.72c-0.674-0.421-1.6-0.577-2.373-0.691
		c-0.513-0.073-1.417,0.098-1.873-0.12c-0.551-0.264-0.686-0.65-0.241-1.151c0.688-0.775,2.376-0.282,3.159,0.015
		c0.555,0.209,1.061,0.45,1.367,0.891c0.111,0.159,0.06,0.583,0.31,0.818"/>
	<path fill="none" stroke="#000000" stroke-width="1.7" stroke-miterlimit="10" d="M307.857,81.056
		c-0.402-0.127-0.85-0.253-1.297-0.171c-0.287,0.413-0.207,0.673-0.709,0.683c0.168,2.151-1.521,0.187-2.201,1.119
		c-0.217,0.298,0.19,0.991,0.168,1.332c-0.034,0.549-0.569,1.068-0.518,1.607c0.153,1.564,2.309,0.318,2.231,1.452
		c-0.062,0.992-1.819,2.86,0.524,2.769c0-0.433-0.375-2.871,0.681-2.604c0.914,0.231-0.073,2.207,0.946,2.629
		c0.175-0.561,1.396-6.668,2.534-3.572c0.542-0.093,1.245-0.268,1.686,0.171c-0.906-1.311-1.267-1.64-0.224-2.589
		c0.013,0.669-0.106,1.946,0.714,2.203c0.541,0.17,0.979-0.196,1.126-0.708c0.913,0.554,0.123,1.618-0.321,2.092
		c-0.516,0.549-0.95,1.106-0.938,1.916c-0.733,0.046-1.545,0.1-2.249-0.144c0.171,0.754,1.074,2.316,1.003,3.026
		c-0.079,0.788-1.404,1.305-1.754,2.101"/>
</g>
<path fill="#FFFFFF" stroke="#000000" stroke-width="1.875" stroke-linecap="round" stroke-miterlimit="10" d="M289.184,136.386
	c-2.146,0.023-6.012-1.416-7.28-3.365c-1.115-1.722-0.209,0.748-4.188-3.226c-0.662-0.663-3.604,0.725-2.938,1.567
	c1.452,1.847,4.898,3.37,1.475,3.104c-1.065-0.083-5.751-1.489-6.658-0.76c-0.851,0.685,0.054,2.625,0.542,3.31
	c-0.782,0.36-0.891,2.355-0.409,3.198c-0.843,0.481-1.354,1.522-0.933,2.485c-0.962,0.54-2.747,1.843-1.242,3.106
	c-0.053,0,1.133,0.908,1.242,0.934c1.458,0.308,2.338,0.729,3.574,0.776c2.483,0.095,5.16-0.331,6.575-0.415
	c1.628-0.095,3.268-1.486,4.537-2.315c0.974-0.629,1.654-0.211,2.777-0.278c1.474-0.085,2.093-0.325,3.796-0.647L289.184,136.386z"
	/>
<path fill="none" stroke="#000000" stroke-width="1.875" stroke-linecap="round" stroke-miterlimit="10" d="M320.658,112.499
	c0.061-3.009,2.235-5.929,4.82-7.295"/>
<path fill="none" stroke="#000000" stroke-width="1.875" stroke-linecap="round" stroke-miterlimit="10" d="M326.911,108.329
	c-1.896,1.485-3.86,2.562-5.862,3.849c-2.222,1.425-2.606,4.118-3.229,6.5c-0.387,1.491-0.577,4.935-0.812,6.458"/>
<path fill="none" stroke="#000000" stroke-width="1.875" stroke-linecap="round" stroke-miterlimit="10" d="M319.745,121.617
	c-0.327-1.885,1.946-3.892,3.066-5.161c1.22-1.385,2.509-2.7,3.709-4.089"/>
<path fill="none" stroke="#000000" stroke-width="1.875" stroke-linecap="round" stroke-miterlimit="10" d="M324.96,117.189
	c-1.833,1.835-3.484,3.252-5.549,4.743c-2.506,1.813-2.95,4.418-3.595,7.22c-1.062,0.336-2.036,1.019-3.12,1.248
	c-1.312,0.279-2.151,0.264-3.389,0.863c-2.827,1.368-5.634,0.797-8.629,0.645c-1.285-0.066-2.24,0.373-3.21,1.175
	c0,0,3.26,36.66,21.82,61.036"/>
<path fill="none" stroke="#000000" stroke-width="1.875" stroke-linecap="round" stroke-miterlimit="10" d="M322.225,128
	c-2.097,0.009-4.035,1.203-6.11,1.193"/>
<path fill="none" stroke="#000000" stroke-width="1.875" stroke-linecap="round" stroke-miterlimit="10" d="M322.606,135.246
	c-1.251,0.035-6.141-2.193-7.37-3.446c-0.938-0.343-1.801-0.797-2.646-1.192"/>
<path fill="none" stroke="#000000" stroke-width="1.875" stroke-linecap="round" stroke-miterlimit="10" d="M334.734,108.981
	c1.902,4.107,3.566,13.286,3.646,13.288"/>
<path fill="none" stroke="#000000" stroke-width="1.875" stroke-linecap="round" stroke-miterlimit="10" d="M288.92,132.899
	c0.844,19.406,9.281,43.11,22.83,75.037c0,0,25.291-46.969,28.626-55.258c2.521-6.271,3.674-11.874,4.25-18.1
	c0.562-6.046,1.15-12.652,0.112-18.667c-1.149-6.689-5.399-10.802-9.729-15.619c-3.065-3.41-4.812-7.611-8.251-10.734
	c-1.254-1.138-3.464-2.485-3.866-4.263c-0.379-1.682,1.195-3.057,2.267-4.116"/>
<path fill="none" stroke="#000000" stroke-width="1.875" stroke-linecap="round" stroke-miterlimit="10" d="M293.232,133.18
	c0.317,16.584,11.906,51.75,22.312,67.5"/>
<path fill="none" stroke="#000000" stroke-width="1.875" stroke-linecap="round" stroke-miterlimit="10" d="M327.17,96.617
	c-1.53,1.265-2.294,3.383-5.062,3.375"/>
<path fill="none" stroke="#000000" stroke-width="1.875" stroke-linecap="round" stroke-miterlimit="10" d="M323.233,88.742
	c-0.479,1.359-2.907,2.859-4.219,3.656"/>
<path fill="none" stroke="#000000" stroke-width="1.875" stroke-miterlimit="10" d="M321.823,84.242
	c-1.089,2.812-3.298,5.312-4.979,7.949c-1.948,3.055-3.355,6.363-5.207,9.421c-3.548,5.864-7.95,10.724-10.459,16.854
	c-1.09,2.668-2.719,6.893-4.945,8.806"/>
<path fill="none" stroke="#000000" stroke-width="1.875" stroke-miterlimit="10" d="M267.315,110.806
	c-1.226-0.357-3.092-0.469-5.395-1.813c-2.25-1.312-3.11-3.442-4.126-4.312c-0.979-0.839-3-0.89-4.688-1.313
	c-2.461-0.616-5.377-2.567-5.437-1.312c-0.093,1.969,6.265,3.812,6.095,4.5c-0.281,1.125-3.812,0.534-4.594,0.375
	c-1.43-0.289-3.211-0.587-4.669-0.845c-1.157-0.207-5.362-0.843-5.55,0.657c-0.19,0.954,10.173,2.4,10.595,3.188
	c-0.333,0.139-3.146,0.258-6.095,0c-3.468-0.305-7.132-0.956-7.229-0.088c-0.126,1.077,3.044,1.631,6.104,2.15
	c2.847,0.483,5.584,0.961,5.902,1.125c-0.217,0.219-3.099,0.746-6.094,0.844c-2.999,0.098-4.86,0.175-4.768,1.289
	c0.029,1.383,2.688,1.154,5.274,1.111c1.277-0.021,6.734,0.861,7.458,1.255c-0.255,0.684-8.801,1.926-8.625,3
	c0.472,1.5,8.482,0.062,12.75-0.562c1.854-0.271,4.153-0.98,5.946-0.432c3.334,1.017,6.533,0.602,10.271,0.9L267.315,110.806z"/>
<path fill="none" stroke="#000000" stroke-width="1.875" stroke-miterlimit="10" d="M291.724,111.271
	c-3.507,1.942-5.07,1.806-7.219,1.944c-2.752,0.176-5.301-0.836-7.62-2.243c-2.633-1.338-9.715-0.573-9.715-0.573
	c-0.332,3.226,2.148,4.812,2.771,7.953c0.594,2.985,1.279,5.638,1.409,8.675c2.748,0.37,6.356-0.526,9.038,0.366
	c2.377,2.089,4.328,4.67,7.613,5.162c3.027,0.452,6.287,0.73,9.314,0.235"/>
<path fill="none" stroke="#000000" stroke-width="1.875" stroke-linecap="round" stroke-miterlimit="10" d="M253.554,106.901
	c1.461,6.275,5.158,6.533,6.533,6.963"/>
<path fill="none" stroke="#000000" stroke-width="1.875" stroke-linecap="round" stroke-miterlimit="10" d="M319.858,99.242
	c2.466,0.58,6.021-7.156,7.312-8.812"/>
<path fill="none" stroke="#000000" stroke-width="1.875" stroke-linecap="round" stroke-miterlimit="10" d="M298.67,124.18
	c1.479,0,2.991,0.057,4.468-0.033c1.699-2.222,2.917-5.647,5.657-7.092"/>
<path fill="none" stroke="#000000" stroke-width="1.875" stroke-linecap="round" stroke-miterlimit="10" d="M304.858,128.117
	c-0.957,0.995-3.333,0.233-4.497-0.07c-1.428-0.372-4.724-0.317-6.377-0.304"/>
<path fill="none" stroke="#000000" stroke-width="1.875" stroke-miterlimit="10" d="M280.483,112.555
	c0.401,3.762,2.046,5.727,4,8.902c0.772,1.251,2.104,3.984,3.814,4.138c2.045,0.184,2.877-2.633,3.785-3.95
	c1.102-1.596,2.776-2.629,3.728-4.32c0.854-1.521,1.715-3.239,2.209-4.914c0.474-1.608,0.635-3.43,1.774-4.731"/>
<path fill="none" stroke="#000000" stroke-width="1.875" stroke-miterlimit="10" d="M288.545,125.305
	c1.79,0.474,2.561,2.92,4.393,2.618c2.048-0.34,2.091-2.543,4.607-2.43"/>
<path fill="none" stroke="#000000" stroke-width="1.875" stroke-miterlimit="10" d="M338.794,104.68
	c2.133,6.041,5.938,8.017,5.438,17.625c0.454,7.109-0.544,16.312-2.352,23.188c-1.67,6.341-4.326,11.272-7.288,17.11
	c-2.834,5.586-5.532,10.927-8.36,16.515c-2.786,5.501-6.58,11.222-8.925,16.921c-0.275,0.674-1.771,4.867-2.044,5.54"/>
<path fill="none" stroke="#000000" stroke-width="1.875" stroke-miterlimit="10" d="M299.075,37.155
	c3.188-0.25,7.375,0.062,10.539,0.297c3.479,0.048,5.523,0.516,8.925,1.331c4.856,1.916,11.812,5.685,14.227,11.825"/>
<path stroke="#000000" stroke-width="1.875" d="M158.193,156.997c21.146,22.681,21.271,31.125,107.726,30.551
	c5.111-13.386,15.036-24.043,27.417-29.407c-0.31-1.105-0.597-2.199-0.869-3.279L158.193,156.997z"/>
<path stroke="#000000" stroke-width="1.875" d="M339.358,154.98c-0.792,1.705-1.891,3.941-3.194,6.535
	c9.15,5.723,16.476,14.518,20.74,25.124l1.361,0.909c86.561,0.582,86.678-7.86,107.83-30.551L339.358,154.98z"/>
<path fill="none" stroke="#000000" stroke-width="2.5" d="M334.273,165.594c12.379,8.812,21.755,24.623,21.755,42.66
	c0,27.65-20.513,48.936-44.436,48.936c-23.924,0-44.438-21.281-44.438-48.936c0-20.604,11.894-38.297,27.274-45.979"/>
<line fill="none" stroke="#000000" stroke-width="1.875" stroke-miterlimit="10" x1="324.434" y1="63.295" x2="332.01" y2="48.443"/>
<path fill="none" stroke="#000000" stroke-width="2" stroke-miterlimit="10" d="M285.983,145.113
	c0.267,1.853,0.062,2.783,0.519,4.554c0.495,1.931-0.32,3.314-0.693,5.622"/>
<path fill="none" stroke="#000000" stroke-linecap="round" stroke-miterlimit="10" d="M295.462,133.623
	c1.451,18.186,10.376,48.197,21.845,62.416"/>
<path fill="none" stroke="#000000" stroke-linecap="round" stroke-miterlimit="10" d="M290.834,133
	c1.058,21.152,13.775,54.064,22.925,71.246"/>
<line fill="none" stroke="#000000" stroke-linecap="round" stroke-miterlimit="10" x1="315.531" y1="183.624" x2="319.692" y2="190.793"/>
<line fill="none" stroke="#000000" stroke-linecap="round" stroke-miterlimit="10" x1="318.186" y1="182.15" x2="321.756" y2="188.492"/>
<line fill="none" stroke="#000000" stroke-linecap="round" stroke-miterlimit="10" x1="320.544" y1="180.561" x2="323.172" y2="185.425"/>
<line fill="none" stroke="#000000" stroke-linecap="round" stroke-miterlimit="10" x1="322.961" y1="178.968" x2="324.997" y2="182.771"/>
<line fill="none" stroke="#000000" stroke-linecap="round" stroke-miterlimit="10" x1="325.024" y1="177.022" x2="326.475" y2="179.703"/>
<line fill="none" stroke="#000000" stroke-linecap="round" stroke-miterlimit="10" x1="326.969" y1="174.724" x2="327.698" y2="176.252"/>
<line fill="none" stroke="#000000" stroke-linecap="round" stroke-miterlimit="10" x1="328.502" y1="171.776" x2="329.306" y2="173.451"/>
<line fill="none" stroke="#000000" stroke-linecap="round" stroke-miterlimit="10" x1="330.032" y1="169.064" x2="330.882" y2="170.461"/>
<line fill="none" stroke="#000000" stroke-linecap="round" stroke-miterlimit="10" x1="331.43" y1="166.255" x2="331.826" y2="167.081"/>
<line fill="none" stroke="#000000" stroke-linecap="round" stroke-miterlimit="10" x1="329.424" y1="170.442" x2="330.25" y2="172.094"/>
<line fill="none" stroke="#000000" stroke-linecap="round" stroke-miterlimit="10" x1="327.773" y1="173.333" x2="328.781" y2="175.148"/>
<line fill="none" stroke="#000000" stroke-linecap="round" stroke-miterlimit="10" x1="317.361" y1="183.415" x2="320.638" y2="189.404"/>
<line fill="none" stroke="#000000" stroke-linecap="round" stroke-miterlimit="10" x1="319.705" y1="181.878" x2="322.459" y2="186.936"/>
<line fill="none" stroke="#000000" stroke-linecap="round" stroke-miterlimit="10" x1="322.095" y1="180.259" x2="323.995" y2="183.82"/>
<line fill="none" stroke="#000000" stroke-linecap="round" stroke-miterlimit="10" x1="324.362" y1="178.479" x2="325.492" y2="180.623"/>
<line fill="none" stroke="#000000" stroke-linecap="round" stroke-miterlimit="10" x1="326.182" y1="176.374" x2="327.113" y2="178.155"/>
<line fill="none" stroke="#000000" stroke-linecap="round" stroke-miterlimit="10" x1="314.357" y1="184.76" x2="318.983" y2="192.493"/>
<path fill="none" stroke="#000000" stroke-width="1.875" stroke-linecap="round" stroke-miterlimit="10" d="M315.831,163.333
	c2.853,0.768,2.025,7.521,3.335,10"/>
<path fill="none" stroke="#000000" stroke-width="1.875" stroke-linecap="round" stroke-miterlimit="10" d="M321.5,157.667
	c2.331,4.333,2.331,6.333,5,8"/>
<path fill="none" stroke="#000000" stroke-width="1.875" stroke-linecap="round" stroke-miterlimit="10" d="M330.831,152.667
	c0.068,1.75,1.395,2.739,2,4.333"/>
</svg>
